<?xml version="1.0" encoding="utf-8"?>
<svg id="master-artboard" viewBox="0 0 862.1685791015625 1084.240966796875" version="1.1" xmlns="http://www.w3.org/2000/svg" x="0px" y="0px" width="862.1685791015625px" height="1084.240966796875px" enable-background="new 0 0 1400 1400"><rect id="ee-background" x="0" y="0" width="862.1685791015625" height="1084.240966796875" style="fill: white; fill-opacity: 0; pointer-events: none;"/>

<g transform="matrix(1, 0, 0, 1, -322.6988525390625, -163.08436584472656)">
			<path fill="#B53D34" d="M465.1,559.5v-9.4c0-5.6,3.3-10.7,8.5-12.9l0,0c5.2-2.2,8.5-7.3,8.5-12.9v-79.7&#10;&#9;&#9;&#9;&#9;c0-33.3,16.2-36.7,16.2-58.7s0-74,0-74h57.1h57.1c0,0,0,52,0,74s16.2,25.3,16.2,58.7v79.7c0,5.6,3.3,10.7,8.5,12.9l0,0&#10;&#9;&#9;&#9;&#9;c5.2,2.2,8.5,7.3,8.5,12.9v9.4c0,8.5,4,16.6,10.9,21.7l60.8,45.3c20.9,15.6,33.3,40.1,33.3,66.2v474.9c0,23-18.6,41.6-41.6,41.6&#10;&#9;&#9;&#9;&#9;H555.4H401.7c-23,0-41.6-18.6-41.6-41.6V692.7c0-26.1,12.3-50.7,33.3-66.2l60.8-45.3C461.1,576.1,465.1,568.1,465.1,559.5z"/>
			<path fill="#D35031" d="M490.4,445.4v72c0,6.7,5.4,12.2,12.2,12.2h103.3c6.7,0,12.2-5.4,12.2-12.2v-72c0-6.7-5.4-12.2-12.2-12.2&#10;&#9;&#9;&#9;&#9;H502.6C495.9,433.2,490.4,438.7,490.4,445.4z"/>
			<path fill="#F26C39" d="M502.6,522.6c-2.8,0-5.2-2.3-5.2-5.2v-72c0-2.8,2.3-5.2,5.2-5.2h103.3c2.8,0,5.2,2.3,5.2,5.2v72&#10;&#9;&#9;&#9;&#9;c0,2.8-2.3,5.2-5.2,5.2H502.6z"/>
			<path fill="#D35031" d="M618.6,543.6H490.3c-8.4,0-15.1,6.8-15.1,15.1s6.8,15.1,15.1,15.1h128.4c8.4,0,15.1-6.8,15.1-15.1&#10;&#9;&#9;&#9;&#9;S627,543.6,618.6,543.6z"/>
			<path fill="#F26C39" d="M490.3,566.9c-4.5,0-8.1-3.7-8.1-8.1s3.7-8.1,8.1-8.1h128.4c4.5,0,8.1,3.7,8.1,8.1s-3.7,8.1-8.1,8.1&#10;&#9;&#9;&#9;&#9;H490.3z"/>
			<path fill="#D35031" d="M706.2,643L706.2,643c-38.4-28.6-85.1-44-133-44l-35.5,0c-47.9,0-94.5,15.4-133,44l0,0&#10;&#9;&#9;&#9;&#9;c-17.4,13-27.7,33.4-27.7,55.1v462.1c0,15.9,12.9,28.8,28.8,28.8H705c15.9,0,28.8-12.9,28.8-28.8V698.1&#10;&#9;&#9;&#9;&#9;C733.8,676.4,723.6,656,706.2,643z"/>
			<path fill="#F26C39" d="M407.1,774.2v388.1h296.7V774.2c0-81.9-66.4-148.3-148.3-148.3h0C473.5,625.9,407.1,692.3,407.1,774.2z"/>
		</g><path d="M 360.100006 770 H 750.800018 V 1042.200012 H 360.100006 V 770 Z" fill="#1A1A1A" transform="matrix(1, 0, 0, 1, -322.6988525390625, -163.08436584472656)"/><g transform="matrix(1, 0, 0, 1, -322.6988525390625, -163.08436584472656)">
					<path d="M 360.100006 792.5 H 750.800018 V 798.5 H 360.100006 V 792.5 Z" fill="#FFFFFF"/>
				</g><path d="M 360.100006 1013.700012 H 750.800018 V 1019.700012 H 360.100006 V 1013.700012 Z" fill="#FFFFFF" transform="matrix(1, 0, 0, 1, -322.6988525390625, -163.08436584472656)"/><text transform="matrix(1, 0, 0, 1, 66.08544921875, 786.2554168701172)" fill="#FFFFFF" font-family="'Oswald-Light'" font-size="92px" style="fill: rgb(255, 255, 255); font-family: Oswald-Light; font-size: 92px; white-space: pre;">BOURBON</text><path fill="#1A1A1A" d="M628.8,474.7v-30.2c0-33.3-16.2-36.7-16.2-58.7s0-74,0-74h-57.1h-57.1c0,0,0,52,0,74&#10;&#9;&#9;&#9;&#9;s-16.2,25.3-16.2,58.7v30.2H628.8z" transform="matrix(1, 0, 0, 1, -322.6988525390625, -163.08436584472656)"/><path opacity="0.5" d="M612.5,353.8c0-20.9,0-41.9,0-41.9h-57.1h-57.1c0,0,0,20.9,0,41.9H612.5z" transform="matrix(1, 0, 0, 1, -322.6988525390625, -163.08436584472656)"/><path opacity="0.2" fill="#FFFFFF" d="M506.1,311.9c0,0,0,52,0,74s-14,25.3-14,58.7v79.7c0,5.6-2.9,10.7-7.3,12.9&#10;&#9;&#9;&#9;c-4.5,2.2-7.3,7.3-7.3,12.9v9.4c0,8.5-3.5,16.6-9.4,21.7l-52.5,45.3c-18.1,15.6-28.7,40.1-28.7,66.2v475.5c0,7.7,6.6,14,14.7,14&#10;&#9;&#9;&#9;h79c-11.2,0-20.3-18.6-20.3-41.6V692.7c0-26.1,6-50.7,16.2-66.2l29.7-45.3c3.3-5.1,5.3-13.1,5.3-21.7v-9.4&#10;&#9;&#9;&#9;c0-5.6,1.6-10.7,4.1-12.9c2.5-2.2,4.1-7.3,4.1-12.9v-79.7c0-33.3,7.9-36.7,7.9-58.7s0-74,0-74H506.1z" transform="matrix(1, 0, 0, 1, -322.6988525390625, -163.08436584472656)"/><path opacity="0.5" d="M717.5,626.5l-60.8-45.3c-6.9-5.1-10.9-13.1-10.9-21.7v-9.4c0-5.6-3.3-10.7-8.5-12.9h0&#10;&#9;&#9;&#9;c-5.2-2.2-8.5-7.3-8.5-12.9v-79.7c0-33.3-16.2-36.7-16.2-58.7s0-74,0-74h-22.1c0,0,0,52,0,74c0,22,9.9,25.3,9.9,58.7v79.7&#10;&#9;&#9;&#9;c0,5.6,2,10.7,5.2,12.9c3.2,2.2,5.2,7.3,5.2,12.9v9.4c0,8.5,2.5,16.6,6.7,21.7l37.3,45.3c12.8,15.6,20.4,40.1,20.4,66.2v474.9&#10;&#9;&#9;&#9;c0,23-11.4,41.6-25.5,41.6h59.5c23,0,41.6-18.6,41.6-41.6V692.7C750.8,666.6,738.4,642.1,717.5,626.5z" transform="matrix(1, 0, 0, 1, -322.6988525390625, -163.08436584472656)"/><path fill="#1A1A1A" d="M618.8,190.8H492.1c-5.5,0-10,4.5-10,10v133.3c0,5.5,4.5,10,10,10h126.7c5.5,0,10-4.5,10-10V200.8&#10;&#9;&#9;&#9;&#9;C628.8,195.2,624.3,190.8,618.8,190.8z" transform="matrix(1, 0, 0, 1, -322.6988525390625, -163.08436584472656)"/><path d="M618.8,190.8h-23c3.5,0,6.4,4.5,6.4,10v133.3c0,5.5-2.8,10-6.4,10h23c5.5,0,10-4.5,10-10V200.8&#10;&#9;&#9;&#9;&#9;&#9;C628.8,195.2,624.3,190.8,618.8,190.8z" transform="matrix(1, 0, 0, 1, -322.6988525390625, -163.08436584472656)"/><path d="M 495.100006 203.800003 H 515.900005 V 331.100006 H 495.100006 V 203.800003 Z" opacity="0.2" fill="#FFFFFF" transform="matrix(1, 0, 0, 1, -322.6988525390625, -163.08436584472656)"/><path opacity="0.7" fill="#F2F2F2" d="M1122,1209.2H819.1c-15.8,0-28.6-12.8-28.6-28.6V770h360v410.7&#10;&#9;&#9;&#9;C1150.6,1196.5,1137.8,1209.2,1122,1209.2z" transform="matrix(1, 0, 0, 1, -322.6988525390625, -163.08436584472656)"/><path d="M 802.599976 770 H 1138.599976 V 1141.200012 H 802.599976 V 770 Z" opacity="0.3" fill="#FFFFFF" transform="matrix(1, 0, 0, 1, -322.6988525390625, -163.08436584472656)"/><g id="XMLID_1_" transform="matrix(1, 0, 0, 1, -322.6988525390625, -163.08436584472656)">
				<path id="XMLID_3_" fill="#F1F1F2" d="M1081.1,870.8l-33.5-25.1c-12.6-9.5-30.5-6.9-40,5.7l-25.1,33.5&#10;&#9;&#9;&#9;&#9;&#9;c-9.5,12.6-6.9,30.5,5.7,40l33.5,25.1c12.6,9.5,30.5,6.9,40-5.7l25.1-33.5C1096.3,898.1,1093.7,880.2,1081.1,870.8z"/>
				<path id="XMLID_2_" fill="#FFFFFF" d="M1070.1,865.9l-26.7-20c-10-7.5-24.2-5.5-31.8,4.5l-20,26.7c-7.5,10-5.5,24.2,4.5,31.8&#10;&#9;&#9;&#9;&#9;&#9;l26.7,20c10,7.5,24.2,5.5,31.8-4.5l20-26.7C1082.2,887.6,1080.2,873.4,1070.1,865.9z"/>
			</g><path id="XMLID_145_" fill="#F1F1F2" d="M964,843.5l-42.7-28.3c-13.2-8.7-30.9-5.1-39.6,8l-28.3,42.7c-8.7,13.2-5.1,30.9,8,39.6&#10;&#9;&#9;&#9;&#9;&#9;l42.7,28.3c13.2,8.7,30.9,5.1,39.6-8l28.3-42.7C980.7,869.9,977.1,852.2,964,843.5z" transform="matrix(1, 0, 0, 1, -322.6988525390625, -163.08436584472656)"/><path id="XMLID_140_" fill="#FFFFFF" d="M942.2,852.1l-34-22.5c-10.4-6.9-24.5-4.1-31.5,6.4l-22.5,34&#10;&#9;&#9;&#9;&#9;&#9;c-6.9,10.4-4.1,24.5,6.4,31.5l34,22.5c10.4,6.9,24.5,4.1,31.5-6.4l22.5-34C955.5,873.1,952.7,859,942.2,852.1z" transform="matrix(1, 0, 0, 1, -322.6988525390625, -163.08436584472656)"/><path d="M 841.5 844.200012 H 1099.700012 V 1180.200012 H 841.5 V 844.200012 Z" transform="matrix(-1.8369700141799558e-16, 1, -1, -1.8369700141799558e-16, 1660.04248046875, -121.49996566772461)" fill="#F26C39"/><path opacity="0.3" fill="#FFFFFF" d="M895.5,770v416.7c0,12.4,10.1,22.5,22.5,22.5h-62.3c-15.8,0-28.6-12.8-28.6-28.6V770H895.5&#10;&#9;&#9;&#9;&#9;z" transform="matrix(1, 0, 0, 1, -322.6988525390625, -163.08436584472656)"/><path opacity="0.2" d="M1082.2,770v416.7c0,12.4-10.1,22.5-22.5,22.5h62.3c15.8,0,28.6-12.8,28.6-28.6V770H1082.2z" transform="matrix(1, 0, 0, 1, -322.6988525390625, -163.08436584472656)"/>
</svg>